<?xml version="1.0" encoding="UTF-8" standalone="no"?>
<svg
   xmlns:dc="http://purl.org/dc/elements/1.1/"
   xmlns:cc="http://creativecommons.org/ns#"
   xmlns:rdf="http://www.w3.org/1999/02/22-rdf-syntax-ns#"
   xmlns:svg="http://www.w3.org/2000/svg"
   xmlns="http://www.w3.org/2000/svg"
   id="svg8"
   version="1.1"
   viewBox="0 0 176.21249 25.4"
   height="25.4mm"
   width="176.21249mm">
  <defs
     id="defs2">
    <rect
       id="rect12"
       height="49.892857"
       width="206.375"
       y="117.92857"
       x="38.55357" />
  </defs>
  <metadata
     id="metadata5">
    <rdf:RDF>
      <cc:Work
         rdf:about="">
        <dc:format>image/svg+xml</dc:format>
        <dc:type
           rdf:resource="http://purl.org/dc/dcmitype/StillImage" />
        <dc:title></dc:title>
      </cc:Work>
    </rdf:RDF>
  </metadata>
  <g
     transform="translate(-5.215234,-124.12654)"
     id="layer1">
    <g
       style="font-size:25.4px;line-height:1.25;font-family:CyberFont;-inkscape-font-specification:'CyberFont Normal';shape-inside:url(#rect12)"
       id="text10"
       transform="translate(-31.75,3.0238095)"
       aria-label="StarDate">
      <path
         id="path16"
         style="font-style:normal;font-variant:normal;font-weight:normal;font-stretch:normal;font-size:25.4px;font-family:'Just In The Firestorm';-inkscape-font-specification:'Just In The Firestorm Normal';font-variant-ligatures:normal;font-variant-caps:normal;font-variant-numeric:normal;font-variant-east-asian:normal;fill:#ffffff"
         d="m 36.965234,146.50273 3.175,-6.35 h 11.1125 v -3.175 h -9.525 q -1.339453,0 -2.257226,-0.91777 -0.917774,-0.91777 -0.917774,-2.25723 v -9.525 q 0,-1.31464 0.917774,-2.23242 0.917773,-0.94258 2.257226,-0.94258 h 17.4625 l -3.175,6.35 h -11.1125 v 3.175 h 9.525 q 1.314649,0 2.232422,0.94258 0.942578,0.91778 0.942578,2.23242 v 9.525 q 0,1.33946 -0.942578,2.25723 -0.917773,0.91777 -2.232422,0.91777 z" />
      <path
         id="path18"
         style="font-style:normal;font-variant:normal;font-weight:normal;font-stretch:normal;font-size:25.4px;font-family:'Just In The Firestorm';-inkscape-font-specification:'Just In The Firestorm Normal';font-variant-ligatures:normal;font-variant-caps:normal;font-variant-numeric:normal;font-variant-east-asian:normal;fill:#ffffff"
         d="m 67.127735,146.50273 v -15.875 h 6.35 v 15.875 z m -4.7625,-19.05 -3.175,-6.35 h 20.637499 v 6.35 z" />
      <path
         id="path20"
         style="font-style:normal;font-variant:normal;font-weight:normal;font-stretch:normal;font-size:25.4px;font-family:'Just In The Firestorm';-inkscape-font-specification:'Just In The Firestorm Normal';font-variant-ligatures:normal;font-variant-caps:normal;font-variant-numeric:normal;font-variant-east-asian:normal;fill:#ffffff"
         d="m 79.827735,146.50273 7.9375,-15.875 h 9.525 l 7.937495,15.875 h -7.937495 l -4.7625,-9.525 -4.7625,9.525 z m 9.525,-19.05 3.175,-6.35 3.175,6.35 z" />
      <path
         id="path22"
         style="font-style:normal;font-variant:normal;font-weight:normal;font-stretch:normal;font-size:25.4px;font-family:'Just In The Firestorm';-inkscape-font-specification:'Just In The Firestorm Normal';font-variant-ligatures:normal;font-variant-caps:normal;font-variant-numeric:normal;font-variant-east-asian:normal;fill:#ffffff"
         d="m 105.22774,146.50273 v -15.875 h 19.05 v 3.175 q 0,1.33946 -0.94258,2.25723 -0.91777,0.91777 -2.23242,0.91777 l 4.7625,9.525 h -7.9375 l -4.7625,-9.525 h -1.5875 v 9.525 z m 1.5875,-19.05 -3.175,-6.35 h 17.4625 q 1.31465,0 2.23242,0.94258 0.94258,0.91778 0.94258,2.23242 v 3.175 z" />
      <path
         id="path24"
         style="font-style:normal;font-variant:normal;font-weight:normal;font-stretch:normal;font-size:25.4px;font-family:'Just In The Firestorm';-inkscape-font-specification:'Just In The Firestorm Normal';font-variant-ligatures:normal;font-variant-caps:normal;font-variant-numeric:normal;font-variant-east-asian:normal;fill:#ffffff"
         d="m 127.45274,146.50273 v -15.875 h 6.35 v 9.525 h 6.35 v -12.7 h -11.1125 l -3.175,-6.35 h 17.4625 q 1.31464,0 2.23242,0.94258 0.94258,0.91778 0.94258,2.23242 v 19.05 q 0,1.33946 -0.94258,2.25723 -0.91778,0.91777 -2.23242,0.91777 z" />
      <path
         id="path26"
         style="font-style:normal;font-variant:normal;font-weight:normal;font-stretch:normal;font-size:25.4px;font-family:'Just In The Firestorm';-inkscape-font-specification:'Just In The Firestorm Normal';font-variant-ligatures:normal;font-variant-caps:normal;font-variant-numeric:normal;font-variant-east-asian:normal;fill:#ffffff"
         d="m 146.50273,146.50273 7.9375,-15.875 h 9.525 l 7.9375,15.875 h -7.9375 l -4.7625,-9.525 -4.7625,9.525 z m 9.525,-19.05 3.175,-6.35 3.175,6.35 z" />
      <path
         id="path28"
         style="font-style:normal;font-variant:normal;font-weight:normal;font-stretch:normal;font-size:25.4px;font-family:'Just In The Firestorm';-inkscape-font-specification:'Just In The Firestorm Normal';font-variant-ligatures:normal;font-variant-caps:normal;font-variant-numeric:normal;font-variant-east-asian:normal;fill:#ffffff"
         d="m 178.25274,146.50273 v -15.875 h 6.35 v 15.875 z m -4.7625,-19.05 -3.175,-6.35 h 20.6375 v 6.35 z" />
      <path
         id="path30"
         style="font-style:normal;font-variant:normal;font-weight:normal;font-stretch:normal;font-size:25.4px;font-family:'Just In The Firestorm';-inkscape-font-specification:'Just In The Firestorm Normal';font-variant-ligatures:normal;font-variant-caps:normal;font-variant-numeric:normal;font-variant-east-asian:normal;fill:#ffffff"
         d="m 194.12773,146.50273 v -15.875 h 15.875 l -3.175,6.35 h -6.35 v 3.175 h 12.7 v 6.35 z m 1.5875,-19.05 -3.175,-6.35 h 20.6375 v 6.35 z" />
    </g>
  </g>
</svg>
