<?xml version="1.0" standalone="no"?>
<!DOCTYPE svg PUBLIC "-//W3C//DTD SVG 20010904//EN"
 "http://www.w3.org/TR/2001/REC-SVG-20010904/DTD/svg10.dtd">
<svg version="1.0" xmlns="http://www.w3.org/2000/svg"
 width="700.000000pt" height="700.000000pt" viewBox="0 0 700.000000 700.000000"
 preserveAspectRatio="xMidYMid meet">
<metadata>
Created by potrace 1.14, written by Peter Selinger 2001-2017
</metadata>
<g transform="translate(0.000000,700.000000) scale(0.100000,-0.100000)"
fill="#000000" stroke="none">
<path d="M3185 6329 c-708 -136 -1351 -551 -1774 -1144 -39 -55 -74 -105 -78
-111 -5 -5 -13 -19 -19 -30 -6 -10 -17 -30 -25 -44 -8 -14 -17 -27 -20 -30 -9
-7 -117 -219 -155 -305 -74 -164 -163 -452 -189 -610 -3 -16 -7 -40 -9 -52 -3
-11 -7 -43 -11 -70 -4 -26 -9 -59 -11 -73 -23 -144 -22 -521 1 -680 2 -14 7
-45 10 -70 3 -25 10 -67 15 -95 5 -27 11 -61 14 -75 2 -14 16 -70 30 -126 286
-1122 1219 -1962 2366 -2129 225 -33 449 -36 745 -10 37 3 125 17 200 30 23 5
129 29 215 50 63 16 163 48 278 91 245 91 564 275 782 451 190 153 436 419
533 576 31 51 37 69 37 116 0 68 -25 125 -71 166 -50 45 -84 56 -224 70 -66 7
-88 10 -165 24 -36 7 -74 14 -85 16 -35 6 -188 46 -250 65 -174 54 -317 114
-491 204 -102 53 -306 176 -324 196 -3 3 -32 25 -65 49 -228 167 -487 441
-658 695 -148 220 -281 503 -361 766 -37 125 -80 319 -91 415 -4 33 -9 69 -12
80 -8 42 -16 196 -17 320 0 329 39 580 143 908 53 166 52 216 -5 294 -57 76
-132 97 -259 72z m-235 -521 c0 -3 -26 -136 -35 -178 -2 -13 -7 -42 -10 -65
-3 -22 -8 -51 -10 -65 -2 -14 -7 -59 -11 -100 -3 -41 -8 -84 -10 -95 -5 -26
-5 -407 0 -465 2 -25 7 -78 11 -117 3 -40 8 -83 10 -95 3 -12 7 -40 10 -63 43
-314 157 -668 320 -990 97 -193 179 -325 305 -493 431 -572 1022 -980 1720
-1186 47 -14 96 -27 110 -30 14 -3 49 -11 78 -18 l53 -13 -58 -55 c-87 -83
-180 -161 -253 -214 -36 -25 -70 -50 -76 -55 -32 -26 -213 -129 -308 -175
-199 -96 -418 -166 -661 -210 -177 -33 -575 -40 -710 -12 -11 2 -42 7 -70 10
-27 4 -68 11 -90 16 -22 5 -52 11 -66 13 -65 12 -283 80 -344 107 -11 5 -47
20 -80 34 -89 36 -249 121 -345 184 -236 153 -409 312 -615 563 -100 124 -205
304 -316 544 -26 56 -90 254 -109 332 -11 48 -24 104 -29 123 -5 19 -12 60
-16 90 -4 30 -9 64 -11 75 -18 89 -24 392 -10 550 4 49 9 92 11 95 1 3 6 28 9
55 4 28 9 57 11 65 2 8 6 27 9 42 3 15 16 72 30 125 177 684 661 1268 1301
1572 124 59 255 110 255 99z"/>
</g>
</svg>
